<svg width="67" height="49" viewBox="0 0 67 49" fill="none" xmlns="http://www.w3.org/2000/svg">
<line y1="2" x2="67" y2="2" stroke="#FA4500" stroke-width="4"/>
<line y1="24" x2="35" y2="24" stroke="#FA4500" stroke-width="4"/>
<line y1="47" x2="67" y2="47" stroke="#FA4500" stroke-width="4"/>
<path d="M52.4395 22.4287L43.4434 17.4883C43.3207 17.4182 43.234 17.3218 43.1836 17.1992L43.1455 17.0674C43.1223 16.8805 43.1754 16.7231 43.3037 16.5947L45.5762 14.3223C45.74 14.1702 45.9145 14.1236 46.1006 14.1816L46.1016 14.1826L57.9092 17.0049L57.9072 17.0127L57.916 17.0029L60.7568 14.1621C61.6555 13.2634 62.6727 12.6255 63.8076 12.2471C64.8718 11.8923 65.7058 11.9327 66.3105 12.3662L66.4287 12.458C66.9463 13.0705 67.0168 13.9436 66.6387 15.0781C66.2603 16.2131 65.6223 17.2302 64.7236 18.1289L61.8643 20.9873L61.8594 20.9824L61.8623 20.9941L64.7031 33.3525C64.7323 33.4635 64.7301 33.5672 64.6953 33.6631C64.6691 33.7353 64.6243 33.8038 64.5615 33.8682L64.4932 33.9307L62.2207 35.6348V35.6357C62.1396 35.7052 62.0284 35.7402 61.8877 35.7402C61.8413 35.7402 61.801 35.7341 61.7666 35.7227H61.7656C61.634 35.6963 61.532 35.6369 61.46 35.5449L61.3975 35.4424L56.4434 26.4219L56.4365 26.4258L56.4141 26.4375L51.833 31.0195L51.8271 31.0137L51.8311 31.0264L52.7715 34.4717C52.8298 34.67 52.784 34.8508 52.6318 35.0146L50.9268 36.7188C50.8219 36.8235 50.6882 36.876 50.5244 36.876H50.4902C50.3145 36.8525 50.1736 36.777 50.0684 36.6484H50.0693L46.7129 32.1738H46.7139L46.7119 32.1729L42.2373 28.8164H42.2363C42.1405 28.7554 42.0743 28.6646 42.0371 28.5439L42.0098 28.4141C41.9981 28.2628 42.049 28.1162 42.166 27.9756L42.167 27.9766L43.8711 26.2539C43.976 26.149 44.1105 26.0967 44.2744 26.0967C44.3097 26.0967 44.3391 26.0977 44.3623 26.1006C44.3856 26.1035 44.4025 26.108 44.4131 26.1133L44.4141 26.1143L47.8594 27.0547L47.8564 27.0625L52.4648 22.4541L52.4395 22.4287Z" fill="#FA4500" stroke="#FA4500" stroke-width="0.015625"/>
</svg>
